<?xml version="1.0" encoding="utf-8"?>
<!-- Generator: Adobe Illustrator 15.0.0, SVG Export Plug-In . SVG Version: 6.00 Build 0)  -->
<!DOCTYPE svg PUBLIC "-//W3C//DTD SVG 1.1//EN" "http://www.w3.org/Graphics/SVG/1.1/DTD/svg11.dtd">
<svg version="1.1" id="Layer_1" xmlns="http://www.w3.org/2000/svg" xmlns:xlink="http://www.w3.org/1999/xlink" x="0px" y="0px"
	 width="567.5px" height="99px" viewBox="0 0 567.5 99" enable-background="new 0 0 567.5 99" xml:space="preserve">
<g>
	<path fill="#292822" d="M139.121,0.657h15.055v34.116h0.263c2.813-3.945,8.787-7.582,19.521-7.582h7.635
		c24.588,0,34.01,7.587,34.01,28.928v14.094c0.013,23.048-14.633,28.149-34.633,28.136h-4.948c-9.57,0-17.352-2.861-21.576-8.455
		h-0.273v6.271h-15.055V0.657z M200.564,57.023c0-15.449-7.359-17.717-20.81-17.717h-1.563c-13.781,0-24.016,0.285-24.016,16.248
		v13.119c0,12.891,4.644,17.576,21.675,17.576h3.424c17.94,0,21.289-5.514,21.289-18.469V57.023z"/>
	<path fill="#292822" d="M362.741,40.979h-8.107V28.875h8.107l-0.006-6.09c0-15.835,10.117-22.122,22.193-22.122l19.942-0.012
		v11.468h-15.013c-8.201,0-12.065,4.727-12.065,10.613v6.143h20.188v12.104h-20.188v57.353h-15.052V40.979z"/>
	<path fill="#292822" d="M311.048,28.875h-8.117v12.104h8.117l-0.005,35.214c0,15.847,10.117,22.139,22.192,22.139h18.672V86.234
		l-15.013,0.005c-8.206,0-10.805-4.097-10.805-9.984V40.979h20.211V28.875H326.09V0.657h-15.036L311.048,28.875z"/>
	<path fill="#292822" d="M484.337,0.668l15.036-0.005v15.274l-15.036,0.006V0.668z M484.337,27.191h15.036v71.152h-15.047
		L484.337,27.191z"/>
	<g>
		<path fill="#292822" d="M283.418,78.388c-2.232,6.232-7.586,7.862-19.383,7.862h-3.461c-19.268,0-22.409-2.448-22.419-17.651
			l0.016-0.005h59.719V55.432c0-23.817-12.386-28.24-32.136-28.24l-7.373,0.005c-15.641-0.005-34.617,2.733-34.617,26.96v16.82
			c0,23.521,16.448,27.386,30.823,27.367h13.528c18.229,0,26.549-5.794,28.682-15.912L283.418,78.388z M238.17,54.325
			c0-13.672,6.378-15.03,21.891-15.03l3.055,0.012c17.472,0,19.708,4.4,19.708,13.381l0.023,3.817l-44.677,0.012V54.325z"/>
		<path fill="#292822" d="M437.226,27.191h-5.631c-20.385,0-29.242,6.282-29.814,15.677l14.344,4.767
			c0.658-6.423,8.023-8.334,19.227-8.334c16.633,0,20.56,0.955,20.56,12.984v6.516h-0.305c-3.758-5.012-8.88-6.295-21.922-6.295
			h-5.864c-19.232,0-30.414,4.773-30.409,19.986v4.341c0.013,12.553,4.792,21.511,24.856,21.511h14.586
			c14.523,0,15.979-2.391,18.854-6.539h0.222v6.521h15.052v-45.73C470.98,32.662,457.751,27.191,437.226,27.191 M455.929,77.083
			c0,6.686-4.576,9.162-22.386,9.162h-4.021c-15.154,0-17.089-2.915-17.089-8.683l0.023-3.761
			c-0.011-6.685,3.766-9.208,16.308-9.208h6.7c11.411,0,20.464,2.243,20.464,9.721V77.083z"/>
		<path fill="#292822" d="M557.728,43.934l9.487-6.393c-2.326-6.463-8.62-10.35-21.943-10.35c-6.666,0-13.502,2.523-17.721,9.439
			h-0.542v-9.439l-14.25,0.012v71.141h15.042V55.531c0-8.637,4.971-16.242,16.669-16.242
			C552.803,39.289,556.834,41.574,557.728,43.934"/>
	</g>
	<polygon fill="#292822" points="72.465,0.896 72.465,20.459 51.634,20.459 91.941,67.516 132.257,20.459 111.429,20.459 
		111.429,0.902 	"/>
	<polygon fill="#292822" points="0.285,78.341 21.121,78.341 21.121,97.896 60.074,97.896 60.074,78.341 80.897,78.341 
		40.603,31.282 	"/>
</g>
</svg>
